<?xml version="1.0" encoding="utf-8"?>
<!-- Generator: Adobe Illustrator 19.0.1, SVG Export Plug-In . SVG Version: 6.00 Build 0)  -->
<svg version="1.1" id="Слой_1" xmlns="http://www.w3.org/2000/svg" xmlns:xlink="http://www.w3.org/1999/xlink" x="0px" y="0px"
	 viewBox="-494 700.2 116.3 93.9" style="enable-background:new -494 700.2 116.3 93.9;" xml:space="preserve">
<g>
	<polygon points="-452.9,725.4 -419.2,725.4 -427.6,712.8 -436,700.2 -444.4,712.8 	"/>
	<polygon points="-417.5,723.9 -409.5,712.1 -401.5,700.2 -433.5,700.2 -425.5,712.1 	"/>
	<polygon points="-416,725.4 -377.7,725.4 -388.1,712.8 -398.6,700.2 -407.3,712.8 	"/>
	<polygon points="-454.4,723.9 -446.4,712.1 -438.4,700.2 -470.4,700.2 -462.4,712.1 	"/>
	<polygon points="-464.4,712.8 -473,700.2 -483.5,712.8 -494,725.4 -455.7,725.4 	"/>
	<polygon points="-425.1,761.2 -433.7,794.1 -405.8,761.2 -377.9,728.2 -416.4,728.2 	"/>
	<polygon points="-419.2,728.2 -452.9,728.2 -444.4,761.2 -436,794.1 -427.6,761.2 	"/>
	<polygon points="-455.4,728.2 -494,728.2 -466.1,761.2 -438.2,794.1 -446.8,761.2 	"/>
</g>
</svg>
