<?xml version="1.0" encoding="utf-8"?>
<!-- Generator: Adobe Illustrator 19.0.1, SVG Export Plug-In . SVG Version: 6.00 Build 0)  -->
<svg version="1.1" id="Слой_1" xmlns="http://www.w3.org/2000/svg" xmlns:xlink="http://www.w3.org/1999/xlink" x="0px" y="0px"
	 viewBox="-535 674.8 74.2 119.2" style="enable-background:new -535 674.8 74.2 119.2;" xml:space="preserve">
<g>
	<path d="M-481,678.6c-14.4-7.1-34.5-4.1-44.3,7.8c-6.6,8-9.8,13.6-9.7,24.9c0,9.5,1.1,11.9,7.3,24.3c3.3,6.6,6.7,15.1,8.7,23.4
		l0.2,1.7h42.6c2.3-8.3,3.8-16.3,8.9-25.1c6.2-12.4,6.5-13.5,6.5-23C-460.6,696.6-467.4,685.3-481,678.6z M-486.4,733.8
		c-1.4,1.7-4.4,3.5-6.8,3.9l-4.3,0.8v7.4c0,7.4,0,7.4-3.8,7.4c-3.5,0-3.7-0.3-3-3.4c2.8-12.4,4.7-19.1,6.8-23.4
		c1.3-2.7,2.2-5.1,2-5.3c-1.2-1.2-6.1,4.9-8.1,10.1l-2.3,6.1l-2.2-5.8c-4.3-11.2-0.3-19.7,12.2-25.7c12.1-5.8,12.9-5.9,13.9-1.3
		C-480.1,714.2-482.2,728.5-486.4,733.8z"/>
	<path d="M-478.7,764.3h-37.8c-1.9,0-3.4,1.5-3.4,3.4v1.2c0,1.9,1.5,3.4,3.4,3.4h37.8c1.9,0,3.4-1.5,3.4-3.4v-1.2
		C-475.2,765.8-476.8,764.3-478.7,764.3z"/>
	<path d="M-478.7,775.4h-37.8c-1.9,0-3.4,1.5-3.4,3.4v1.2c0,1.9,1.5,3.4,3.4,3.4h37.8c1.9,0,3.4-1.5,3.4-3.4v-1.2
		C-475.2,777-476.8,775.4-478.7,775.4z"/>
	<path d="M-512.7,786.8c0,4,2.8,7.2,6.4,7.2h17.5c3.5,0,6.4-3.2,6.4-7.2c0-0.1,0-0.2,0-0.3h-30.3
		C-512.7,786.6-512.7,786.7-512.7,786.8z"/>
</g>
</svg>
