<?xml version="1.0" encoding="utf-8"?>
<!-- Generator: Adobe Illustrator 19.0.1, SVG Export Plug-In . SVG Version: 6.00 Build 0)  -->
<svg version="1.1" id="Слой_1" xmlns="http://www.w3.org/2000/svg" xmlns:xlink="http://www.w3.org/1999/xlink" x="0px" y="0px"
	 viewBox="-538 673.6 71.6 121.2" style="enable-background:new -538 673.6 71.6 121.2;" xml:space="preserve">
<g>
	<path d="M-523.2,714.9l3.7,2.4l0.4-11.8c0.1-6.4-0.1-16.1,7.8-17.1c7.1-0.9,11.1,5,11.2,18.3c0,2.8,0.6,5.8,1.3,6.9
		c1,1.6,1.8,1.2,4.9-2.1c2-2.2,4.3-6.3,5.1-9.2c3.7-13.7-7.5-28.8-21.3-28.7c-5.3,0-13.4,3.7-17,7.6
		C-535.9,690.7-533.9,707.8-523.2,714.9z"/>
	<path d="M-467.9,739.5c-1.8-2.4-24.3-9.7-29.7-9.7c-2.8,0-3.9-0.7-4.3-2.8c-0.6-3-3.2-27.3-3.2-30.3c0-2.8-4.5-4.7-7.5-3.1
		c-2.4,1.3-2.5,2.6-2.5,30.7c0,29,0,29.3-2.6,29.3c-1.5,0-5.1-2.5-8.3-5.7c-5.9-6-8.4-6.5-11.1-2.4c-1.3,2.1-1.3,3.5,0.3,8.1
		c2.3,6.7,9.2,17.9,14.5,23.5l3.9,4.1h45.4l3.3-6.1c3-5.6,3.3-7.3,3.3-19.8C-466.4,746.2-466.9,740.8-467.9,739.5z"/>
	<rect x="-518.4" y="786" width="45.4" height="8.8"/>
</g>
</svg>
