<?xml version="1.0" encoding="utf-8"?>
<!-- Generator: Adobe Illustrator 19.0.1, SVG Export Plug-In . SVG Version: 6.00 Build 0)  -->
<svg version="1.1" id="Слой_1" xmlns="http://www.w3.org/2000/svg" xmlns:xlink="http://www.w3.org/1999/xlink" x="0px" y="0px"
	 viewBox="-486 698 123.7 95" style="enable-background:new -486 698 123.7 95;" xml:space="preserve">
<g>
	<rect x="-434.8" y="750.5" width="36.3" height="6.3"/>
	<path d="M-462.3,719.3v-5.1c0-0.7,0-1.5,0-2.4v-7.5h77.5v31.3h7.5V698h-91.3v10.6c0,1.4,0,2.5,0,3.6v7.1h0.1H-462.3z"/>
	<path d="M-486,793h48.8v-71.3H-486V793z M-462,789.2c-1,0-1.8-0.8-1.8-1.8s0.8-1.8,1.8-1.8s1.8,0.8,1.8,1.8
		C-460.2,788.4-461,789.2-462,789.2z M-478.5,728h33.8v53.8h-33.8V728z"/>
	<path d="M-394.8,738v53.8h32.5V738H-394.8z M-378.4,740.8c0.4,0,0.7,0.3,0.7,0.7s-0.3,0.7-0.7,0.7c-0.4,0-0.7-0.3-0.7-0.7
		S-378.8,740.8-378.4,740.8z M-382.4,743.6h8.1v0.6h-8.1V743.6z M-378.3,788.8c-0.7,0-1.3-0.6-1.3-1.3c0-0.7,0.6-1.3,1.3-1.3
		s1.3,0.6,1.3,1.3C-376.9,788.2-377.5,788.8-378.3,788.8z M-367.3,783h-22.5v-36.3h22.5V783z"/>
	<polygon points="-434.8,762.4 -408.8,762.4 -408.8,764 -434.8,764 -434.8,767.6 -398.5,767.6 -398.5,758.8 -434.8,758.8 	"/>
</g>
</svg>
