<?xml version="1.0" encoding="utf-8"?>
<!-- Generator: Adobe Illustrator 19.0.1, SVG Export Plug-In . SVG Version: 6.00 Build 0)  -->
<svg version="1.1"
	 id="svg2" xmlns:dc="http://purl.org/dc/elements/1.1/" xmlns:rdf="http://www.w3.org/1999/02/22-rdf-syntax-ns#" xmlns:cc="http://creativecommons.org/ns#" xmlns:svg="http://www.w3.org/2000/svg"
	 xmlns="http://www.w3.org/2000/svg" xmlns:xlink="http://www.w3.org/1999/xlink" x="0px" y="0px" viewBox="-196 318.4 217 156.6"
	 style="enable-background:new -196 318.4 217 156.6;" xml:space="preserve">
<g>
	<path d="M-81.1,471.8c0.7,0.1,1.4,0.1,2.1,0.2C-79.7,472-80.4,471.9-81.1,471.8z"/>
	<path d="M-74.5,472.5c0.5,0.1,1,0.1,1.5,0.1C-73.5,472.6-74,472.6-74.5,472.5z"/>
	<path d="M-79,472.1c1.5,0.2,3,0.3,4.5,0.5C-75.9,472.4-77.4,472.2-79,472.1z"/>
	<path d="M-89.8,471c3,0.3,5.9,0.6,8.5,0.9C-84,471.5-86.8,471.3-89.8,471z"/>
	<path d="M-81.2,471.8c0,0,0.1,0,0.1,0C-81.2,471.8-81.2,471.8-81.2,471.8z"/>
	<path d="M-73.1,472.7c0.5,0.1,1,0.1,1.5,0.2C-72,472.8-72.5,472.7-73.1,472.7z"/>
	<path d="M-68.8,473.1c0.6,0.1,1.2,0.1,1.7,0.2C-67.6,473.2-68.2,473.2-68.8,473.1z"/>
	<path d="M-71.5,472.8c0.9,0.1,1.9,0.2,2.7,0.3C-69.7,473-70.6,472.9-71.5,472.8z"/>
	<path d="M-110,468.9c2.1,0.2,4.2,0.4,6.1,0.6C-105.8,469.3-107.9,469.1-110,468.9z"/>
	<path d="M-119.6,467.9c0.1,0,0.2,0,0.3,0C-119.4,467.9-119.5,467.9-119.6,467.9z"/>
	<path d="M-125.2,467.4c1.9,0.2,3.7,0.4,5.5,0.6C-121.5,467.7-123.3,467.5-125.2,467.4z"/>
	<path d="M-128.4,467c1.1,0.1,2.2,0.2,3.3,0.3C-126.2,467.2-127.3,467.1-128.4,467z"/>
	<path d="M-119.3,468c1.5,0.2,3.1,0.3,4.6,0.5C-116.2,468.3-117.7,468.1-119.3,468z"/>
	<path d="M-114.7,468.4c1.6,0.2,3.2,0.3,4.8,0.5C-111.5,468.7-113.1,468.6-114.7,468.4z"/>
	<path d="M-103.8,469.5c1.6,0.2,3.2,0.3,4.7,0.5C-100.6,469.8-102.2,469.7-103.8,469.5z"/>
	<path d="M-91.9,470.7c0.7,0.1,1.5,0.1,2.2,0.2C-90.5,470.9-91.2,470.8-91.9,470.7z"/>
	<path d="M-99.1,470c2.5,0.3,4.9,0.5,7.2,0.7C-94.3,470.5-96.7,470.3-99.1,470z"/>
	<path d="M-67.1,473.3c1,0.1,2,0.2,2.9,0.3C-65.1,473.5-66.1,473.4-67.1,473.3z"/>
	<path d="M-64.2,473.6C-64.2,473.6-64.1,473.6-64.2,473.6C-64.1,473.6-64.2,473.6-64.2,473.6z"/>
	<path d="M-50.3,475c0.1,0,0.2,0,0.2,0C-50.1,475-50.2,475-50.3,475z"/>
	<path d="M-50.8,474.9c0.1,0,0.1,0,0.2,0C-50.7,474.9-50.7,474.9-50.8,474.9z"/>
	<path d="M-50.6,474.9c0.1,0,0.2,0,0.3,0C-50.4,475-50.5,475-50.6,474.9z"/>
	<path d="M-51.3,474.9c0.1,0,0.2,0,0.2,0C-51.2,474.9-51.2,474.9-51.3,474.9z"/>
	<path d="M-51.6,474.8c0.1,0,0.2,0,0.3,0C-51.4,474.9-51.5,474.9-51.6,474.8z"/>
	<path d="M-64.1,473.6c1,0.1,1.9,0.2,2.7,0.3C-62.2,473.8-63.1,473.7-64.1,473.6z"/>
	<path d="M3.1,378.2c-3.1,2.1-6.5,4.7-9.8,7.3c-10.9,8.8-20.1,15.6-31.2,24.9c4.2,8.4,9.8,13.3,1.1,24.6c-4.8,4.9-10.2,5.7-20,2.8
		c-3.1-0.9-12.1-3.3-20-5.3c-14.6-3.8-16.4-4.5-16.4-6.3c0-2,2.4-1.9,11.4,0.5c36.8,9.6,38,9.6,41.9,5.8c2-2.1,3.4-5.2,3.5-8.1
		c0-4.2-2-8.3-4.9-9.8c-1-0.5-5.8-2-10.6-3.3s-12.8-3.4-17.7-4.7c-39.6-10.5-39.6-10.5-47.2-10.2c-11.5,0.5-12.9,1.4-35.9,23.9
		c-10.8,10.6-19.7,19.7-19.7,20.2c0,0.5,6.9,7.8,15.4,16.3l0,0c8.5,8.5,15.8,15.4,16.2,15.4c0.3,0,3-2.4,6.4-5.7
		c-0.8-0.1-1.7-0.2-2.6-0.3c0.9,0.1,1.7,0.2,2.6,0.3c1-1,2.1-2,3.2-3.1c4.8-4.9,9.5-9.1,10.4-9.5c0.9-0.3,10.9,0.7,22.8,2.4
		c40.3,5.7,42.5,5.9,46.7,4.8c16-5.2,43.4-40.3,49.8-46.5c18.7-18.9,21.8-22.4,22.2-25C22.7,379.1,12.6,372.6,3.1,378.2z"/>
	<path d="M-128.4,467c-2-0.2-3.9-0.4-5.9-0.6c0,0,0,0,0,0C-132.3,466.6-130.4,466.8-128.4,467z"/>
	<path d="M-50.1,475C-50,475-50,475-50.1,475L-50.1,475z"/>
	<path d="M-51.1,474.9c0.1,0,0.2,0,0.3,0C-50.9,474.9-51,474.9-51.1,474.9z"/>
	<path d="M-61.4,473.8c0.5,0.1,1,0.1,1.5,0.2C-60.4,474-60.9,473.9-61.4,473.8z"/>
	<path d="M-56.1,474.4c0.2,0,0.4,0,0.6,0.1C-55.6,474.4-55.8,474.4-56.1,474.4z"/>
	<path d="M-58,474.2c0.7,0.1,1.3,0.1,1.9,0.2C-56.7,474.3-57.3,474.3-58,474.2z"/>
	<path d="M-52,474.8c0.1,0,0.3,0,0.4,0C-51.8,474.8-51.9,474.8-52,474.8z"/>
	<path d="M-59.9,474c0.7,0.1,1.3,0.1,1.9,0.2C-58.6,474.1-59.2,474.1-59.9,474z"/>
	<path d="M-55.4,474.5c0.5,0,0.9,0.1,1.4,0.1C-54.5,474.5-54.9,474.5-55.4,474.5z"/>
	<path d="M-53.5,474.6c0.6,0.1,1,0.1,1.5,0.1C-52.5,474.8-53,474.7-53.5,474.6z"/>
	<path d="M-54.1,474.6c0.2,0,0.4,0,0.6,0.1C-53.7,474.6-53.9,474.6-54.1,474.6z"/>
	<path d="M-88.3,322.2c-1.1-0.1-2.2-0.2-3.2-0.3C-90.5,322-89.4,322.1-88.3,322.2z"/>
	<path d="M-91.5,321.8c-1.1-0.1-2.2-0.2-3.2-0.3C-93.7,321.6-92.6,321.7-91.5,321.8z"/>
	<path d="M-94.7,321.5c-0.3,0-0.6-0.1-1-0.1C-95.4,321.5-95,321.5-94.7,321.5z"/>
	<path d="M-100.4,320.9c-1.4-0.1-2.7-0.3-4-0.4C-103.2,320.7-101.8,320.8-100.4,320.9z"/>
	<path d="M-84.1,322.6c-1.4-0.1-2.8-0.3-4.2-0.4C-86.9,322.3-85.5,322.5-84.1,322.6z"/>
	<path d="M-105.8,320.4c-2.5-0.3-4.7-0.5-6.6-0.7C-110.5,319.9-108.2,320.1-105.8,320.4z"/>
	<path d="M-95.7,321.4c-1.6-0.2-3.2-0.3-4.8-0.5C-98.9,321.1-97.3,321.3-95.7,321.4z"/>
	<path d="M-104.5,320.5c-0.5,0-0.9-0.1-1.4-0.1C-105.4,320.4-104.9,320.5-104.5,320.5z"/>
	<path d="M-71.4,323.9c-0.6-0.1-1.1-0.1-1.7-0.2C-72.5,323.8-72,323.8-71.4,323.9z"/>
	<path d="M-49.8,326.1c-1.9-0.2-3.7-0.4-5.5-0.6C-53.5,325.7-51.7,325.9-49.8,326.1z"/>
	<path d="M-55.4,325.5c-3.9-0.4-7.8-0.8-11.6-1.2C-63.3,324.7-59.4,325.1-55.4,325.5z"/>
	<path d="M-81,322.9c-1.1-0.1-2.1-0.2-3.1-0.3C-83.1,322.7-82.1,322.8-81,322.9z"/>
	<path d="M-46.5,326.4c-1.1-0.1-2.2-0.2-3.3-0.3C-48.7,326.2-47.7,326.3-46.5,326.4z"/>
	<path d="M-112.5,319.7c-0.8-0.1-1.6-0.2-2.4-0.2C-114.1,319.5-113.3,319.6-112.5,319.7z"/>
	<path d="M-67,324.3c-0.4,0-0.9-0.1-1.3-0.1C-67.9,324.3-67.4,324.3-67,324.3z"/>
	<path d="M-68.3,324.2c-1-0.1-2.1-0.2-3.1-0.3C-70.4,324-69.3,324.1-68.3,324.2z"/>
	<path d="M-73.1,323.7c-2.7-0.3-5.3-0.5-7.9-0.8C-78.5,323.2-75.9,323.4-73.1,323.7z"/>
	<path d="M-123.9,318.5c-0.2,0-0.5,0-0.6-0.1C-124.4,318.5-124.2,318.5-123.9,318.5z"/>
	<path d="M-124.7,318.5c-0.1,0-0.1,0-0.2,0C-124.8,318.5-124.8,318.5-124.7,318.5z"/>
	<path d="M-124.5,318.5c-0.1,0-0.1,0-0.2,0C-124.7,318.5-124.6,318.5-124.5,318.5z"/>
	<path d="M-123.4,318.6c-0.2,0-0.4,0-0.5-0.1C-123.7,318.6-123.6,318.6-123.4,318.6z"/>
	<path d="M-124.9,318.4C-124.9,318.4-124.9,318.4-124.9,318.4L-124.9,318.4z"/>
	<path d="M-137.1,383.1c-4.2-8.4-9.8-13.3-1.1-24.6c4.8-4.9,10.2-5.7,20-2.8c3.1,0.9,12.1,3.3,20,5.3c14.6,3.8,16.4,4.5,16.4,6.3
		c0,2-2.4,1.9-11.4-0.5c-36.8-9.6-38-9.6-41.9-5.8c-2,2.1-3.4,5.2-3.5,8.1c0,4.2,2,8.3,4.9,9.8c1,0.5,5.8,2,10.6,3.3
		s12.8,3.4,17.7,4.7c39.6,10.5,39.6,10.5,47.2,10.2c11.5-0.5,12.9-1.4,35.9-23.9c10.8-10.6,19.7-19.7,19.7-20.2s-6.9-7.8-15.4-16.3
		v0c-8.5-8.5-15.8-15.4-16.2-15.4c-0.3,0-3,2.4-6.4,5.7c0.8,0.1,1.7,0.2,2.6,0.3c-0.9-0.1-1.7-0.2-2.6-0.3c-1,1-2.1,2-3.2,3.1
		c-4.8,4.9-9.5,9.1-10.4,9.5c-0.9,0.3-10.9-0.7-22.8-2.4c-40.3-5.7-42.5-5.9-46.7-4.8c-16,5.2-43.4,40.3-49.8,46.5
		c-18.7,18.9-21.8,22.4-22.2,25c-1.9,10.5,8.2,16.9,17.7,11.4c3.1-2.1,6.5-4.7,9.8-7.3C-157.3,399.2-148.2,392.4-137.1,383.1z"/>
	<path d="M-46.5,326.4c2,0.2,3.9,0.4,5.9,0.6l0,0C-42.7,326.8-44.6,326.6-46.5,326.4z"/>
	<path d="M-122.9,318.7c-0.2,0-0.3,0-0.5,0C-123.2,318.6-123.1,318.6-122.9,318.7z"/>
	<path d="M-120.2,318.9c-0.2,0-0.4,0-0.6-0.1C-120.7,318.9-120.4,318.9-120.2,318.9z"/>
	<path d="M-118.8,319.1c-0.3,0-0.7-0.1-1-0.1C-119.4,319-119.1,319-118.8,319.1z"/>
	<path d="M-118.1,319.1c-0.2,0-0.5,0-0.7-0.1C-118.5,319.1-118.3,319.1-118.1,319.1z"/>
	<path d="M-117.7,319.2c-0.1,0-0.2,0-0.3,0C-118,319.2-117.9,319.2-117.7,319.2z"/>
	<path d="M-122.6,318.7c-0.1,0-0.2,0-0.3,0C-122.8,318.7-122.7,318.7-122.6,318.7z"/>
	<path d="M-115.9,319.4c-0.6-0.1-1.3-0.1-1.8-0.2C-117.2,319.2-116.5,319.3-115.9,319.4z"/>
	<path d="M-119.7,319c-0.2,0-0.3,0-0.5-0.1C-120.1,318.9-119.9,319-119.7,319z"/>
	<path d="M-120.9,318.9c-0.7-0.1-1.2-0.1-1.7-0.2C-122.1,318.7-121.5,318.8-120.9,318.9z"/>
	<path d="M-114.9,319.5c-0.4,0-0.7-0.1-1-0.1C-115.6,319.4-115.2,319.4-114.9,319.5z"/>
</g>
</svg>
