<svg xmlns="http://www.w3.org/2000/svg" viewBox="-535 674.8 74.2 119.2"><path d="M-481 678.6c-14.4-7.1-34.5-4.1-44.3 7.8-6.6 8-9.8 13.6-9.7 24.9 0 9.5 1.1 11.9 7.3 24.3 3.3 6.6 6.7 15.1 8.7 23.4l.2 1.7h42.6c2.3-8.3 3.8-16.3 8.9-25.1 6.2-12.4 6.5-13.5 6.5-23 .2-16-6.6-27.3-20.2-34zm-5.4 55.2c-1.4 1.7-4.4 3.5-6.8 3.9l-4.3.8v7.4c0 7.4 0 7.4-3.8 7.4-3.5 0-3.7-.3-3-3.4 2.8-12.4 4.7-19.1 6.8-23.4 1.3-2.7 2.2-5.1 2-5.3-1.2-1.2-6.1 4.9-8.1 10.1l-2.3 6.1-2.2-5.8c-4.3-11.2-.3-19.7 12.2-25.7 12.1-5.8 12.9-5.9 13.9-1.3 1.9 9.6-.2 23.9-4.4 29.2zm7.7 30.5h-37.8c-1.9 0-3.4 1.5-3.4 3.4v1.2c0 1.9 1.5 3.4 3.4 3.4h37.8c1.9 0 3.4-1.5 3.4-3.4v-1.2c.1-1.9-1.5-3.4-3.4-3.4zm0 11.1h-37.8c-1.9 0-3.4 1.5-3.4 3.4v1.2c0 1.9 1.5 3.4 3.4 3.4h37.8c1.9 0 3.4-1.5 3.4-3.4v-1.2c.1-1.8-1.5-3.4-3.4-3.4zm-34 11.4c0 4 2.8 7.2 6.4 7.2h17.5c3.5 0 6.4-3.2 6.4-7.2v-.3h-30.3v.3z"/></svg>