<svg xmlns="http://www.w3.org/2000/svg" viewBox="-486 698 123.7 95"><path d="M-434.8 750.5h36.3v6.3h-36.3zm-27.5-31.2v-15h77.5v31.3h7.5V698h-91.3v21.3h6.3z"/><path d="M-486 793h48.8v-71.3H-486V793zm24-3.8c-1 0-1.8-.8-1.8-1.8s.8-1.8 1.8-1.8 1.8.8 1.8 1.8-.8 1.8-1.8 1.8zm-16.5-61.2h33.8v53.8h-33.8V728zm83.7 10v53.8h32.5V738h-32.5zm16.4 2.8c.4 0 .7.3.7.7s-.3.7-.7.7c-.4 0-.7-.3-.7-.7s.3-.7.7-.7zm-4 2.8h8.1v.6h-8.1v-.6zm4.1 45.2c-.7 0-1.3-.6-1.3-1.3 0-.7.6-1.3 1.3-1.3s1.3.6 1.3 1.3c.1.7-.5 1.3-1.3 1.3zm11-5.8h-22.5v-36.3h22.5V783zm-67.5-20.6h26v1.6h-26v3.6h36.3v-8.8h-36.3z"/></svg>