<svg xmlns="http://www.w3.org/2000/svg" viewBox="-538 673.6 71.6 121.2"><path d="M-523.2 714.9l3.7 2.4.4-11.8c.1-6.4-.1-16.1 7.8-17.1 7.1-.9 11.1 5 11.2 18.3 0 2.8.6 5.8 1.3 6.9 1 1.6 1.8 1.2 4.9-2.1 2-2.2 4.3-6.3 5.1-9.2 3.7-13.7-7.5-28.8-21.3-28.7-5.3 0-13.4 3.7-17 7.6-8.8 9.5-6.8 26.6 3.9 33.7z"/><path d="M-467.9 739.5c-1.8-2.4-24.3-9.7-29.7-9.7-2.8 0-3.9-.7-4.3-2.8-.6-3-3.2-27.3-3.2-30.3 0-2.8-4.5-4.7-7.5-3.1-2.4 1.3-2.5 2.6-2.5 30.7 0 29 0 29.3-2.6 29.3-1.5 0-5.1-2.5-8.3-5.7-5.9-6-8.4-6.5-11.1-2.4-1.3 2.1-1.3 3.5.3 8.1 2.3 6.7 9.2 17.9 14.5 23.5l3.9 4.1h45.4l3.3-6.1c3-5.6 3.3-7.3 3.3-19.8 0-9.1-.5-14.5-1.5-15.8zm-50.5 46.5h45.4v8.8h-45.4z"/></svg>