<svg xmlns="http://www.w3.org/2000/svg" viewBox="-196 318.4 217 156.6"><path d="M-81.1 471.8c.7.1 1.4.1 2.1.2-.7 0-1.4-.1-2.1-.2zm6.6.7c.5.1 1 .1 1.5.1-.5 0-1 0-1.5-.1zm-4.5-.4c1.5.2 3 .3 4.5.5-1.4-.2-2.9-.4-4.5-.5zm-10.8-1.1c3 .3 5.9.6 8.5.9-2.7-.4-5.5-.6-8.5-.9zm8.6.8h.1-.1zm8.1.9c.5.1 1 .1 1.5.2-.4-.1-.9-.2-1.5-.2zm4.3.4c.6.1 1.2.1 1.7.2-.5-.1-1.1-.1-1.7-.2zm-2.7-.3c.9.1 1.9.2 2.7.3l-2.7-.3zm-38.5-3.9c2.1.2 4.2.4 6.1.6-1.9-.2-4-.4-6.1-.6zm-9.6-1h.3-.3zm-5.6-.5c1.9.2 3.7.4 5.5.6-1.8-.3-3.6-.5-5.5-.6zm-3.2-.4l3.3.3-3.3-.3zm9.1 1c1.5.2 3.1.3 4.6.5-1.5-.2-3-.4-4.6-.5zm4.6.4c1.6.2 3.2.3 4.8.5-1.6-.2-3.2-.3-4.8-.5zm10.9 1.1c1.6.2 3.2.3 4.7.5-1.5-.2-3.1-.3-4.7-.5zm11.9 1.2c.7.1 1.5.1 2.2.2-.8 0-1.5-.1-2.2-.2zm-7.2-.7c2.5.3 4.9.5 7.2.7-2.4-.2-4.8-.4-7.2-.7zm32 3.3zm2.9.3s.1 0 0 0c.1 0 0 0 0 0zm13.9 1.4zm-.5-.1h.2-.2zm.2 0h.3c-.1.1-.2.1-.3 0zm-.7 0h.2-.2zm-.3-.1h.3c-.1.1-.2.1-.3 0zm-12.5-1.2z"/><path d="M3.1 378.2c-3.1 2.1-6.5 4.7-9.8 7.3-10.9 8.8-20.1 15.6-31.2 24.9 4.2 8.4 9.8 13.3 1.1 24.6-4.8 4.9-10.2 5.7-20 2.8-3.1-.9-12.1-3.3-20-5.3-14.6-3.8-16.4-4.5-16.4-6.3 0-2 2.4-1.9 11.4.5 36.8 9.6 38 9.6 41.9 5.8 2-2.1 3.4-5.2 3.5-8.1 0-4.2-2-8.3-4.9-9.8-1-.5-5.8-2-10.6-3.3s-12.8-3.4-17.7-4.7c-39.6-10.5-39.6-10.5-47.2-10.2-11.5.5-12.9 1.4-35.9 23.9-10.8 10.6-19.7 19.7-19.7 20.2s6.9 7.8 15.4 16.3 15.8 15.4 16.2 15.4c.3 0 3-2.4 6.4-5.7-.8-.1-1.7-.2-2.6-.3.9.1 1.7.2 2.6.3 1-1 2.1-2 3.2-3.1 4.8-4.9 9.5-9.1 10.4-9.5.9-.3 10.9.7 22.8 2.4 40.3 5.7 42.5 5.9 46.7 4.8 16-5.2 43.4-40.3 49.8-46.5 18.7-18.9 21.8-22.4 22.2-25 2-10.5-8.1-17-17.6-11.4z"/><path d="M-128.4 467c-2-.2-3.9-.4-5.9-.6 2 .2 3.9.4 5.9.6zm78.3 8c.1 0 .1 0 0 0zm-1-.1h.3-.3zm-10.3-1.1c.5.1 1 .1 1.5.2-.5 0-1-.1-1.5-.2zm5.3.6c.2 0 .4 0 .6.1-.1-.1-.3-.1-.6-.1zm-1.9-.2c.7.1 1.3.1 1.9.2-.6-.1-1.2-.1-1.9-.2zm6 .6h.4-.4zm-7.9-.8c.7.1 1.3.1 1.9.2-.6-.1-1.2-.1-1.9-.2zm4.5.5c.5 0 .9.1 1.4.1-.5-.1-.9-.1-1.4-.1zm1.9.1c.6.1 1 .1 1.5.1-.5.1-1 0-1.5-.1zm-.6 0c.2 0 .4 0 .6.1-.2-.1-.4-.1-.6-.1zm-34.2-152.4c-1.1-.1-2.2-.2-3.2-.3 1 .1 2.1.2 3.2.3zm-3.2-.4c-1.1-.1-2.2-.2-3.2-.3 1 .1 2.1.2 3.2.3zm-3.2-.3c-.3 0-.6-.1-1-.1.3.1.7.1 1 .1zm-5.7-.6c-1.4-.1-2.7-.3-4-.4 1.2.2 2.6.3 4 .4zm16.3 1.7c-1.4-.1-2.8-.3-4.2-.4 1.4.1 2.8.3 4.2.4zm-21.7-2.2c-2.5-.3-4.7-.5-6.6-.7 1.9.2 4.2.4 6.6.7zm10.1 1c-1.6-.2-3.2-.3-4.8-.5 1.6.2 3.2.4 4.8.5zm-8.8-.9c-.5 0-.9-.1-1.4-.1.5 0 1 .1 1.4.1zm33.1 3.4c-.6-.1-1.1-.1-1.7-.2.6.1 1.1.1 1.7.2zm21.6 2.2c-1.9-.2-3.7-.4-5.5-.6 1.8.2 3.6.4 5.5.6zm-5.6-.6c-3.9-.4-7.8-.8-11.6-1.2 3.7.4 7.6.8 11.6 1.2zm-25.6-2.6c-1.1-.1-2.1-.2-3.1-.3 1 .1 2 .2 3.1.3zm34.5 3.5l-3.3-.3c1.1.1 2.1.2 3.3.3zm-66-6.7c-.8-.1-1.6-.2-2.4-.2.8 0 1.6.1 2.4.2zm45.5 4.6c-.4 0-.9-.1-1.3-.1.4.1.9.1 1.3.1zm-1.3-.1c-1-.1-2.1-.2-3.1-.3 1 .1 2.1.2 3.1.3zm-4.8-.5c-2.7-.3-5.3-.5-7.9-.8 2.5.3 5.1.5 7.9.8zm-50.8-5.2c-.2 0-.5 0-.6-.1.1.1.3.1.6.1zm-.8 0h-.2.2zm.2 0h-.2.2zm1.1.1c-.2 0-.4 0-.5-.1.2.1.3.1.5.1zm-1.5-.2z"/><path d="M-137.1 383.1c-4.2-8.4-9.8-13.3-1.1-24.6 4.8-4.9 10.2-5.7 20-2.8 3.1.9 12.1 3.3 20 5.3 14.6 3.8 16.4 4.5 16.4 6.3 0 2-2.4 1.9-11.4-.5-36.8-9.6-38-9.6-41.9-5.8-2 2.1-3.4 5.2-3.5 8.1 0 4.2 2 8.3 4.9 9.8 1 .5 5.8 2 10.6 3.3s12.8 3.4 17.7 4.7c39.6 10.5 39.6 10.5 47.2 10.2 11.5-.5 12.9-1.4 35.9-23.9 10.8-10.6 19.7-19.7 19.7-20.2s-6.9-7.8-15.4-16.3-15.8-15.4-16.2-15.4c-.3 0-3 2.4-6.4 5.7.8.1 1.7.2 2.6.3-.9-.1-1.7-.2-2.6-.3-1 1-2.1 2-3.2 3.1-4.8 4.9-9.5 9.1-10.4 9.5-.9.3-10.9-.7-22.8-2.4-40.3-5.7-42.5-5.9-46.7-4.8-16 5.2-43.4 40.3-49.8 46.5-18.7 18.9-21.8 22.4-22.2 25-1.9 10.5 8.2 16.9 17.7 11.4 3.1-2.1 6.5-4.7 9.8-7.3 10.9-8.8 20-15.6 31.1-24.9z"/><path d="M-46.5 326.4c2 .2 3.9.4 5.9.6-2.1-.2-4-.4-5.9-.6zm-76.4-7.7h-.5c.2-.1.3-.1.5 0zm2.7.2c-.2 0-.4 0-.6-.1.1.1.4.1.6.1zm1.4.2c-.3 0-.7-.1-1-.1.4 0 .7 0 1 .1zm.7 0c-.2 0-.5 0-.7-.1.3.1.5.1.7.1zm.4.1h-.3.3zm-4.9-.5h-.3.3zm6.7.7c-.6-.1-1.3-.1-1.8-.2.5 0 1.2.1 1.8.2zm-3.8-.4c-.2 0-.3 0-.5-.1.1 0 .3.1.5.1zm-1.2-.1c-.7-.1-1.2-.1-1.7-.2.5 0 1.1.1 1.7.2zm6 .6c-.4 0-.7-.1-1-.1.3 0 .7 0 1 .1z"/></svg>